<mxfile host="app.diagrams.net" agent="Mozilla/5.0 (Macintosh; Intel Mac OS X 10_15_7) AppleWebKit/605.1.15 (KHTML, like Gecko) Version/17.4.1 Safari/605.1.15" version="26.2.13">
  <diagram name="Page-1" id="gxZ5RexQbfErvTzpWhGi">
    <mxGraphModel dx="1360" dy="779" grid="1" gridSize="10" guides="1" tooltips="1" connect="1" arrows="1" fold="1" page="1" pageScale="1" pageWidth="827" pageHeight="1169" math="0" shadow="0">
      <root>
        <mxCell id="0" />
        <mxCell id="1" parent="0" />
        <mxCell id="tpT6Yhvncz1egbK2yA69-1" value="" style="shape=cylinder3;whiteSpace=wrap;html=1;boundedLbl=1;backgroundOutline=1;size=15;" parent="1" vertex="1">
          <mxGeometry x="630" y="140" width="150" height="180" as="geometry" />
        </mxCell>
        <mxCell id="tpT6Yhvncz1egbK2yA69-2" value="PostgreSQL" style="text;html=1;align=center;verticalAlign=middle;resizable=0;points=[];autosize=1;strokeColor=none;fillColor=none;" parent="1" vertex="1">
          <mxGeometry x="655" y="210" width="90" height="30" as="geometry" />
        </mxCell>
        <mxCell id="tpT6Yhvncz1egbK2yA69-3" value="HirakiCP" style="swimlane;whiteSpace=wrap;html=1;" parent="1" vertex="1">
          <mxGeometry x="360" y="280" width="160" height="80" as="geometry" />
        </mxCell>
        <mxCell id="tpT6Yhvncz1egbK2yA69-4" value="«interface»&lt;br&gt;&lt;b&gt;DataSource&lt;/b&gt;" style="html=1;whiteSpace=wrap;" parent="1" vertex="1">
          <mxGeometry x="360" y="120" width="160" height="80" as="geometry" />
        </mxCell>
        <mxCell id="tpT6Yhvncz1egbK2yA69-5" value="«interface»&lt;br&gt;&lt;b&gt;EntityManagerFactory&lt;/b&gt;" style="html=1;whiteSpace=wrap;" parent="1" vertex="1">
          <mxGeometry x="120" y="120" width="160" height="80" as="geometry" />
        </mxCell>
        <mxCell id="tpT6Yhvncz1egbK2yA69-6" value="Hibernate" style="html=1;whiteSpace=wrap;" parent="1" vertex="1">
          <mxGeometry x="120" y="280" width="160" height="80" as="geometry" />
        </mxCell>
        <mxCell id="tpT6Yhvncz1egbK2yA69-7" value="" style="whiteSpace=wrap;html=1;aspect=fixed;" parent="1" vertex="1">
          <mxGeometry x="119" y="400" width="590" height="590" as="geometry" />
        </mxCell>
        <mxCell id="tpT6Yhvncz1egbK2yA69-8" value="«interface»&lt;br&gt;&lt;b&gt;EntityManager&lt;/b&gt;" style="html=1;whiteSpace=wrap;" parent="1" vertex="1">
          <mxGeometry x="180" y="545" width="160" height="80" as="geometry" />
        </mxCell>
        <mxCell id="tpT6Yhvncz1egbK2yA69-9" value="«interface»&lt;br&gt;&lt;b&gt;EntityTransaction&lt;/b&gt;" style="html=1;whiteSpace=wrap;" parent="1" vertex="1">
          <mxGeometry x="180" y="740" width="160" height="60" as="geometry" />
        </mxCell>
        <mxCell id="tpT6Yhvncz1egbK2yA69-10" value="Entity" style="html=1;whiteSpace=wrap;" parent="1" vertex="1">
          <mxGeometry x="430" y="740" width="170" height="60" as="geometry" />
        </mxCell>
        <mxCell id="tpT6Yhvncz1egbK2yA69-11" value="Persistence Context" style="swimlane;" parent="1" vertex="1">
          <mxGeometry x="470" y="450" width="170" height="115" as="geometry" />
        </mxCell>
        <mxCell id="tpT6Yhvncz1egbK2yA69-21" value="User" style="whiteSpace=wrap;html=1;align=center;" parent="tpT6Yhvncz1egbK2yA69-11" vertex="1">
          <mxGeometry x="35" y="45" width="100" height="40" as="geometry" />
        </mxCell>
        <mxCell id="tpT6Yhvncz1egbK2yA69-13" value="" style="endArrow=none;html=1;rounded=0;entryX=1.003;entryY=0.158;entryDx=0;entryDy=0;entryPerimeter=0;startArrow=blockThin;startFill=1;exitX=-0.017;exitY=0.493;exitDx=0;exitDy=0;exitPerimeter=0;" parent="1" source="tpT6Yhvncz1egbK2yA69-1" target="tpT6Yhvncz1egbK2yA69-3" edge="1">
          <mxGeometry relative="1" as="geometry">
            <mxPoint x="590" y="200" as="sourcePoint" />
            <mxPoint x="750" y="360" as="targetPoint" />
          </mxGeometry>
        </mxCell>
        <mxCell id="tpT6Yhvncz1egbK2yA69-14" value="" style="endArrow=none;html=1;rounded=0;entryX=1.003;entryY=0.158;entryDx=0;entryDy=0;entryPerimeter=0;startArrow=blockThin;startFill=0;exitX=0.5;exitY=1;exitDx=0;exitDy=0;dashed=1;" parent="1" source="tpT6Yhvncz1egbK2yA69-4" edge="1">
          <mxGeometry relative="1" as="geometry">
            <mxPoint x="548" y="210" as="sourcePoint" />
            <mxPoint x="440" y="279" as="targetPoint" />
          </mxGeometry>
        </mxCell>
        <mxCell id="tpT6Yhvncz1egbK2yA69-15" value="" style="endArrow=none;html=1;rounded=0;entryX=1.003;entryY=0.158;entryDx=0;entryDy=0;entryPerimeter=0;startArrow=blockThin;startFill=0;exitX=0.5;exitY=1;exitDx=0;exitDy=0;dashed=1;" parent="1" edge="1">
          <mxGeometry relative="1" as="geometry">
            <mxPoint x="199.8" y="200" as="sourcePoint" />
            <mxPoint x="199.8" y="279" as="targetPoint" />
          </mxGeometry>
        </mxCell>
        <mxCell id="tpT6Yhvncz1egbK2yA69-16" value="" style="endArrow=none;html=1;rounded=0;entryX=1;entryY=0.5;entryDx=0;entryDy=0;startArrow=blockThin;startFill=1;exitX=0;exitY=0.5;exitDx=0;exitDy=0;dashed=1;" parent="1" source="tpT6Yhvncz1egbK2yA69-4" target="tpT6Yhvncz1egbK2yA69-5" edge="1">
          <mxGeometry relative="1" as="geometry">
            <mxPoint x="300" y="100" as="sourcePoint" />
            <mxPoint x="300" y="179" as="targetPoint" />
          </mxGeometry>
        </mxCell>
        <mxCell id="tpT6Yhvncz1egbK2yA69-17" value="" style="endArrow=none;html=1;rounded=0;entryX=-0.01;entryY=0.453;entryDx=0;entryDy=0;startArrow=blockThin;startFill=0;dashed=1;entryPerimeter=0;exitX=0;exitY=0.5;exitDx=0;exitDy=0;" parent="1" source="tpT6Yhvncz1egbK2yA69-8" target="tpT6Yhvncz1egbK2yA69-5" edge="1">
          <mxGeometry relative="1" as="geometry">
            <mxPoint x="70" y="630" as="sourcePoint" />
            <mxPoint x="50" y="170" as="targetPoint" />
            <Array as="points">
              <mxPoint x="80" y="410" />
            </Array>
          </mxGeometry>
        </mxCell>
        <mxCell id="tpT6Yhvncz1egbK2yA69-18" value="" style="endArrow=none;html=1;rounded=0;entryX=1;entryY=0.5;entryDx=0;entryDy=0;startArrow=blockThin;startFill=0;dashed=1;exitX=0.5;exitY=0;exitDx=0;exitDy=0;" parent="1" source="tpT6Yhvncz1egbK2yA69-10" target="tpT6Yhvncz1egbK2yA69-8" edge="1">
          <mxGeometry relative="1" as="geometry">
            <mxPoint x="414.8" y="600" as="sourcePoint" />
            <mxPoint x="414.8" y="679" as="targetPoint" />
            <Array as="points">
              <mxPoint x="440" y="670" />
            </Array>
          </mxGeometry>
        </mxCell>
        <mxCell id="tpT6Yhvncz1egbK2yA69-20" value="" style="endArrow=none;html=1;rounded=0;entryX=0.5;entryY=1;entryDx=0;entryDy=0;startArrow=blockThin;startFill=0;dashed=1;" parent="1" source="tpT6Yhvncz1egbK2yA69-9" target="tpT6Yhvncz1egbK2yA69-8" edge="1">
          <mxGeometry relative="1" as="geometry">
            <mxPoint x="309.8" y="555" as="sourcePoint" />
            <mxPoint x="309.8" y="634" as="targetPoint" />
          </mxGeometry>
        </mxCell>
        <mxCell id="tpT6Yhvncz1egbK2yA69-22" value="" style="endArrow=none;html=1;rounded=0;entryX=1;entryY=0.5;entryDx=0;entryDy=0;startArrow=blockThin;startFill=0;dashed=1;" parent="1" target="tpT6Yhvncz1egbK2yA69-8" edge="1">
          <mxGeometry relative="1" as="geometry">
            <mxPoint x="470" y="510" as="sourcePoint" />
            <mxPoint x="370" y="545" as="targetPoint" />
            <Array as="points" />
          </mxGeometry>
        </mxCell>
        <mxCell id="tpT6Yhvncz1egbK2yA69-23" value="Single Thread" style="text;html=1;align=center;verticalAlign=middle;resizable=0;points=[];autosize=1;strokeColor=none;fillColor=none;" parent="1" vertex="1">
          <mxGeometry x="360" y="900" width="100" height="30" as="geometry" />
        </mxCell>
      </root>
    </mxGraphModel>
  </diagram>
</mxfile>
